PathFileType	4	(X/Y/Z)	Patient4_TMGait_0pt3_03_right_10.trc.trc
DataRate	CameraRate	NumFrames	NumMarkers	Units	OrigDataRate	OrigDataStartFrame	OrigNumFrames
53.435114503817	53.435114503817	6	33	mm	53.435114503817	1	       141
Frame#	Time	Sacral			L.Shoulder			Chest			R.Shoulder			Neck			R.ASIS			L.ASIS			R.Thigh.Superior			R.Thigh.Lateral			R.Thigh.Inferior			R.Patella			L.Thigh.Superior			L.Thigh.Lateral			L.Thigh.Inferior			L.Patella			L.Shank.Superior			L.Shank.Lateral			L.Shank.Inferior			R.Shank.Superior			R.Shank.Lateral			R.Shank.Inferior			R.Heel			R.Midfoot.Superior			R.Midfoot.Lateral			R.Toe			L.Heel			L.Midfoot.Lateral			L.Midfoot.Superior			L.Toe			L.Elbow			L.Wrist			R.Elbow			R.Wrist			
		X1	Y1	Z1	X2	Y2	Z2	X3	Y3	Z3	X4	Y4	Z4	X5	Y5	Z5	X6	Y6	Z6	X7	Y7	Z7	X8	Y8	Z8	X9	Y9	Z9	X10	Y10	Z10	X11	Y11	Z11	X12	Y12	Z12	X13	Y13	Z13	X14	Y14	Z14	X15	Y15	Z15	X16	Y16	Z16	X17	Y17	Z17	X18	Y18	Z18	X19	Y19	Z19	X20	Y20	Z20	X21	Y21	Z21	X22	Y22	Z22	X23	Y23	Z23	X24	Y24	Z24	X25	Y25	Z25	X26	Y26	Z26	X27	Y27	Z27	X28	Y28	Z28	X29	Y29	Z29	X30	Y30	Z30	X31	Y31	Z31	X32	Y32	Z32	X33	Y33	Z33	

1	18.950000000000	783.765083817008	1001.966775515302	414.886137648848	994.585011591533	1416.542889457757	227.998079062652	1088.161299224779	1346.611616157432	393.802624899571	1006.334638762504	1430.287574251857	563.120667101471	971.187872163581	1483.338345366717	384.093417760777	1004.437052221123	930.073471391300	541.500294574358	1005.220330339330	945.820963502979	268.611427225747	1063.185154144628	739.774707097920	524.201681703565	996.077665936922	628.469095202099	595.674884082521	1081.427351538641	572.194670750839	522.714886068041	1079.097118754529	461.901039998616	549.703397461271	1065.904374430318	747.552786579433	314.262805823339	996.559701881657	620.197367348665	256.004422163288	1083.822785888730	554.080371632906	330.205276539205	1090.306991922560	479.005205285408	339.402129205793	1051.104272627406	405.257922341733	332.033018843166	951.960232710007	300.817494446854	277.818017789193	982.931576644865	186.112654875045	352.289370419740	997.158844136883	396.871320113119	558.908821813893	873.554506173745	369.589345961543	621.606621336137	850.247219673566	259.972880341928	576.618908115106	644.952926797334	221.201901310399	551.583277485490	804.645834213286	140.954790272349	594.967681410494	695.923025938960	156.436802210295	626.833451705526	855.240380045872	27.036301425725	623.679687016530	838.157791475387	39.668399032931	389.701740315644	913.669863133420	36.180955968763	310.773570060667	997.463961825089	95.572228877641	340.646936029347	1125.677620705385	41.149421986042	312.741065179556	1006.254565319073	1069.280150180496	97.806744589297	1088.559286010128	820.860160276619	96.009631753529	1022.662547071960	1076.444031428212	678.833375605696	1176.602819008594	864.547468825580	690.665993207732	
2	18.968714285714	781.642640414934	1000.545083392314	411.212612918220	996.790550557187	1415.606369762775	227.687126949923	1087.076682882293	1345.287237456351	394.956318798611	1002.078152166655	1428.290274412859	563.036706821023	970.818900513467	1482.157160198914	383.713507624487	1001.613376051365	929.924985158824	540.696592892204	1005.556066986976	944.641038573691	267.424162458708	1064.467586004216	742.872523575850	522.455875840608	1001.150276583677	630.335420000412	594.293944543619	1087.826225281138	576.322938732079	521.179679752412	1088.223166987448	465.378918477807	548.578850230755	1065.358195409620	746.090046642345	313.522578317252	995.949872047015	618.741414829842	255.402389329438	1082.688113341883	552.602840031545	330.371618099729	1088.849899097941	477.397584340035	339.955334643104	1049.023993837746	403.723451803569	332.375979186954	949.128669161098	300.168529907979	277.809122859524	978.455816068673	185.289445629382	352.471940801775	1006.004601554305	399.580569325147	557.654556036445	881.221203079073	372.908197673463	618.550405248716	858.527828745110	262.813559193230	574.284601554849	653.099377345288	222.501814704262	546.525860609234	813.255531178462	144.584003365799	593.074266648099	703.760124441000	159.163753070426	623.214916942752	864.343161044477	30.185066597987	623.900518801951	832.401730906290	39.676041116746	389.622204475712	907.926538398787	36.158287038579	310.706171259565	991.783328086935	95.446095644849	340.718270306669	1119.967395932161	40.980408087906	312.708935272553	1016.103388121696	1070.083134154739	95.272963383075	1109.705617279888	826.467038047172	94.068822088081	1003.225115753244	1074.516855456325	677.541619302943	1136.296691922325	853.078423373673	693.587168751449	
3	18.987428571429	779.534552302326	999.345319200358	407.512980749375	999.053058576585	1414.834672999773	227.475574809866	1085.988521812576	1344.134888690845	396.223092657305	997.764887661900	1426.486540888077	563.005967633702	970.454186714251	1481.148273940041	383.400423811513	998.677626030283	929.900044822485	539.945917688897	1005.897897346688	943.599220823000	266.324247910439	1065.582134627772	746.122657934478	520.824246067308	1005.968420907547	632.380834400416	593.003115960905	1093.983522538943	580.625118335864	519.765008401117	1097.149796289332	469.142405036525	547.578176642439	1064.670956371816	744.671412641289	312.777223965085	995.059474270801	617.400370936341	254.773705934671	1081.209280835454	551.165085806371	330.480313904702	1086.998795456685	475.868615909419	340.445059515465	1046.583954869604	402.284481493137	332.659020313925	945.995446767751	299.553584282654	277.756678571769	973.767674594020	184.520445593950	352.619447900582	1014.881808287829	402.387160755095	556.500053472356	889.044768888946	375.772792145208	615.612826498739	867.415096095322	265.136048269979	572.036198560795	662.039093246035	222.363501797993	541.620932060421	822.959754019477	147.571085909543	591.223083473210	712.687843401381	160.671071187684	619.703927822207	875.130175398480	33.075324729873	624.089436265343	826.504056370213	39.685587661483	389.538499131617	902.051610672095	36.133184276897	310.634135799455	985.965639270726	95.325172661857	340.772368756342	1114.124472137984	40.818567328112	312.673592309749	1025.952869036730	1071.083003705022	92.858357259439	1131.267560435183	832.683953742085	92.362527388284	983.314858087833	1073.094103747962	676.357595602355	1095.393215621724	842.566290264304	696.435445444469	
4	19.006142857143	777.513129970456	998.522563346688	403.893779867103	1001.342547835081	1414.335764552543	227.427238842339	1084.927706456953	1343.282384981469	397.632520203970	993.492380282328	1425.043166128862	563.055654989158	970.105639147175	1480.433792459031	383.201627312810	995.654176037114	930.073459641733	539.317284306481	1006.237885179604	942.795626242608	265.408633119774	1066.378147042807	749.487911717461	519.424563500329	1010.209703150002	634.622517562847	591.896786336496	1099.525813226510	585.029436242432	518.580107280468	1105.445005791409	473.213815242935	546.791784303584	1063.766961659694	743.357704119462	312.073456888292	993.754396739983	616.280407800247	254.135029021228	1079.224694526754	549.831764504903	330.516529354359	1084.572991817977	474.508909304495	340.838335514090	1043.646122715744	401.039514861313	332.852189245785	942.478174857303	299.013281152731	277.645188009770	968.880299516949	183.860486916173	352.713812843624	1023.510705881653	405.261228475666	555.538352266454	896.906636772054	377.857149215279	612.975195871838	877.013019910046	266.634134625422	570.016004965735	672.069735517490	220.073415819929	537.145538727395	834.124311935205	149.548955346183	589.525306439847	723.146233076718	160.336513496463	616.506921292106	888.222806818934	35.589256845254	624.255125691092	820.558648325300	39.696577541532	389.451407367900	896.139136588329	36.105496747902	310.557711807095	980.101077276190	95.216006599701	340.800048320771	1108.241784033648	40.672333096688	312.635456871503	1035.534651765422	1072.351496542206	90.714777101276	1152.828426212902	839.691838383020	91.090237917167	963.294560952983	1072.511765995509	675.348778838747	1054.847669146959	833.830986192109	699.070163236896	
5	19.024857142857	775.635142604156	998.208315820287	400.442744799622	1003.643756227363	1414.201021785232	227.596369499380	1083.919057517145	1342.839938658573	399.215079439767	989.334295900989	1424.108056562000	563.206242916121	969.782234913035	1480.117373354582	383.156177470948	992.561716425000	930.519623420122	538.880800115811	1006.577557893925	942.320924028772	264.766924483330	1066.715702929834	752.932017066656	518.355915943950	1013.590669348372	637.063673060755	591.050561273090	1104.119086637375	589.459740219620	517.711449051433	1112.729244793095	477.604272843283	546.287711953708	1062.567679919135	742.198062628995	311.468663364882	991.914695113169	615.472593441757	253.509243163350	1076.581512781109	548.657504104685	330.483661567332	1081.400936807121	473.394193889635	341.119925095069	1040.077956638822	400.073614114493	332.937735336337	938.491924259586	298.584754836456	277.465200212812	963.785734026344	183.356424988430	352.742869976599	1031.653229434694	408.181620476049	554.847249596305	904.739440856200	378.900237358037	610.801602041067	887.447000573819	267.088023555388	568.359819706587	683.544949554976	215.093282444828	533.355330441216	847.100525013375	150.255400754495	588.095327459956	735.585608973152	157.707403899760	613.820793590605	904.144064315759	37.676487326698	624.427844790363	814.627222152342	39.709011071985	389.361449273320	890.250012373576	36.075552291638	310.477190925483	974.247876263109	95.124579584964	340.794042006788	1102.379281833540	40.548145850008	312.595307664201	1044.660827055833	1073.949783082529	88.975513042205	1174.076855675097	847.677476901637	90.427489489809	943.438973217671	1073.060722934633	674.540948509968	1015.423429604353	827.513273923900	701.364837227655	
6	19.043571428571	773.939372419718	998.491206953859	397.228706182848	1005.952405894927	1414.490753509644	228.021959438075	1082.979727367389	1342.884668008405	400.996225052684	985.339838738166	1423.791750804035	563.469386925256	969.489010757094	1480.269238079357	383.291222179235	989.416492061185	931.299164362681	538.702074870207	1006.926620251997	942.243115229710	264.473826921911	1066.478858603523	756.410059514220	517.690647618026	1015.888346958617	639.682503465890	590.516313526883	1107.491783725819	593.827870301486	517.215662213340	1118.697813592882	482.298036797623	546.104573122848	1061.003877943189	741.225056315738	311.028482268741	989.453830771263	615.041912325640	252.925630946477	1073.160785015843	547.681375578364	330.404435157147	1077.349715036760	472.577394543327	341.295231668909	1035.776934160384	399.448772490207	332.913516914337	933.968473749011	298.297370485945	277.215975910355	958.466241022732	183.041736476379	352.702648467531	1039.119258169498	411.131207042132	554.482787897623	912.520642249029	378.738780672959	609.227221338421	898.827776148920	266.398240400504	567.187018275898	696.815755332748	207.147173605528	530.467833453380	862.159213221706	149.578607542946	587.042387028576	750.395375621509	152.575828564207	611.818986193885	923.226550698605	39.380067087975	624.655995616709	808.743225370204	39.723251970547	389.269054018519	884.415604176206	36.044137193938	310.393195580143	968.436289916052	95.055599056810	340.750368440058	1096.567704648185	40.449933668638	312.554297294659	1053.231458770231	1075.915973206314	87.744924933991	1194.799854606296	856.798221228428	90.508475719021	923.950425750433	1074.948487179601	673.915285144080	977.693244575462	824.007765667557	703.216130523440	
